<svg width="44" height="24" viewBox="0 0 44 24" fill="none" xmlns="http://www.w3.org/2000/svg">
<path d="M4 8L12 16M12 8L4 16" stroke="#B6B6B6" stroke-width="1.5" stroke-linecap="round" stroke-linejoin="round"/>
<path d="M23 9H41M27 3V5M37 3V5M26 12H30V16H26V12ZM26.2 21H37.8C38.9201 21 39.4802 21 39.908 20.782C40.2843 20.5903 40.5903 20.2843 40.782 19.908C41 19.4802 41 18.9201 41 17.8V8.2C41 7.07989 41 6.51984 40.782 6.09202C40.5903 5.71569 40.2843 5.40973 39.908 5.21799C39.4802 5 38.9201 5 37.8 5H26.2C25.0799 5 24.5198 5 24.092 5.21799C23.7157 5.40973 23.4097 5.71569 23.218 6.09202C23 6.51984 23 7.07989 23 8.2V17.8C23 18.9201 23 19.4802 23.218 19.908C23.4097 20.2843 23.7157 20.5903 24.092 20.782C24.5198 21 25.0799 21 26.2 21Z" stroke="#9400D9" stroke-width="2" stroke-linecap="round" stroke-linejoin="round"/>
</svg>
