<svg width="114" height="36" viewBox="0 0 114 36" fill="none" xmlns="http://www.w3.org/2000/svg">
<g filter="url(#filter0_f_541_1986)">
<path d="M3.1582 11.2435C16.5766 6.74342 31.6712 54.7434 55.8015 17.2441C78.6457 -18.2566 95.0263 29.2431 110.509 25.7442" stroke="url(#paint0_linear_541_1986)"/>
</g>
<g filter="url(#filter1_f_541_1986)">
<path d="M3.1582 11.2435C19.6741 8.2435 28.9636 45.7436 55.8017 17.2442C79.7606 -8.19774 95.0266 29.2433 110.51 25.7443" stroke="url(#paint1_linear_541_1986)"/>
</g>
<g filter="url(#filter2_f_541_1986)">
<path d="M3.1582 11.2436C16.5777 7.74344 27.9319 36.2434 55.8017 17.2444C79.2738 1.24341 97.0911 28.7434 110.51 25.7444" stroke="url(#paint2_linear_541_1986)"/>
</g>
<path d="M9.79492 28.7539C8.54232 28.7539 7.43783 28.4958 6.48145 27.9795C5.52507 27.4632 4.78027 26.6761 4.24707 25.6182C3.71387 24.5602 3.44727 23.2272 3.44727 21.6191C3.44727 19.9349 3.72656 18.5596 4.28516 17.4932C4.85221 16.4183 5.63086 15.6227 6.62109 15.1064C7.61133 14.5902 8.73698 14.332 9.99805 14.332C10.6921 14.332 11.3607 14.404 12.0039 14.5479C12.6556 14.6833 13.1888 14.8568 13.6035 15.0684L12.9688 16.833C12.5456 16.6637 12.0547 16.5114 11.4961 16.376C10.946 16.2406 10.4297 16.1729 9.94727 16.1729C8.98242 16.1729 8.17839 16.3802 7.53516 16.7949C6.90039 17.2096 6.4222 17.819 6.10059 18.623C5.78743 19.4271 5.63086 20.4173 5.63086 21.5938C5.63086 22.7194 5.7832 23.68 6.08789 24.4756C6.40104 25.2712 6.8623 25.8805 7.47168 26.3037C8.08952 26.7184 8.8597 26.9258 9.78223 26.9258C10.5186 26.9258 11.1829 26.8496 11.7754 26.6973C12.3678 26.5365 12.9053 26.3503 13.3877 26.1387V28.0176C12.9222 28.2546 12.4017 28.4365 11.8262 28.5635C11.2591 28.6904 10.582 28.7539 9.79492 28.7539ZM18.7959 8.74609V14.6494C18.7959 14.988 18.7874 15.3307 18.7705 15.6777C18.7536 16.0163 18.724 16.3294 18.6816 16.6172H18.8213C19.109 16.1263 19.473 15.7158 19.9131 15.3857C20.3617 15.0472 20.8695 14.7933 21.4365 14.624C22.0036 14.4463 22.6045 14.3574 23.2393 14.3574C24.3564 14.3574 25.2874 14.5352 26.0322 14.8906C26.7855 15.2461 27.3483 15.7962 27.7207 16.541C28.1016 17.2858 28.292 18.2507 28.292 19.4355V28.5H26.21V19.5752C26.21 18.4157 25.9434 17.5482 25.4102 16.9727C24.8854 16.3971 24.0771 16.1094 22.9854 16.1094C21.9528 16.1094 21.1276 16.3083 20.5098 16.7061C19.9004 17.0954 19.4603 17.6709 19.1895 18.4326C18.9271 19.1943 18.7959 20.1253 18.7959 21.2256V28.5H16.6885V8.74609H18.7959ZM37.8389 14.3574C39.4977 14.3574 40.7292 14.7298 41.5332 15.4746C42.3372 16.2194 42.7393 17.4085 42.7393 19.042V28.5H41.2031L40.7969 26.4434H40.6953C40.306 26.9512 39.8997 27.3786 39.4766 27.7256C39.0534 28.0641 38.5625 28.3223 38.0039 28.5C37.4538 28.6693 36.7767 28.7539 35.9727 28.7539C35.1263 28.7539 34.373 28.6058 33.7129 28.3096C33.0612 28.0133 32.5449 27.5648 32.1641 26.9639C31.7917 26.363 31.6055 25.6012 31.6055 24.6787C31.6055 23.2907 32.1556 22.2243 33.2559 21.4795C34.3561 20.7347 36.0319 20.3285 38.2832 20.2607L40.6826 20.1592V19.3086C40.6826 18.1068 40.4245 17.2646 39.9082 16.7822C39.3919 16.2998 38.6641 16.0586 37.7246 16.0586C36.9967 16.0586 36.3027 16.1644 35.6426 16.376C34.9824 16.5876 34.3561 16.8372 33.7637 17.125L33.1162 15.5254C33.7425 15.2038 34.4619 14.9287 35.2744 14.7002C36.0869 14.4717 36.9417 14.3574 37.8389 14.3574ZM40.6572 21.6445L38.5371 21.7334C36.8021 21.8011 35.5791 22.0846 34.8682 22.584C34.1572 23.0833 33.8018 23.79 33.8018 24.7041C33.8018 25.4997 34.043 26.0879 34.5254 26.4688C35.0078 26.8496 35.6468 27.04 36.4424 27.04C37.6781 27.04 38.6895 26.6973 39.4766 26.0117C40.2637 25.3262 40.6572 24.2979 40.6572 22.9268V21.6445ZM51.5752 27.0273C51.9222 27.0273 52.2777 26.9977 52.6416 26.9385C53.0055 26.8792 53.3018 26.8073 53.5303 26.7227V28.3604C53.2848 28.4704 52.9421 28.5635 52.502 28.6396C52.0703 28.7158 51.6471 28.7539 51.2324 28.7539C50.4961 28.7539 49.8275 28.627 49.2266 28.373C48.6257 28.1107 48.1432 27.6706 47.7793 27.0527C47.4238 26.4349 47.2461 25.5801 47.2461 24.4883V16.2363H45.2656V15.208L47.2588 14.3828L48.0967 11.3613H49.3662V14.5859H53.4414V16.2363H49.3662V24.4248C49.3662 25.2965 49.5651 25.9482 49.9629 26.3799C50.3691 26.8115 50.9066 27.0273 51.5752 27.0273ZM60.8428 27.0273C61.1898 27.0273 61.5452 26.9977 61.9092 26.9385C62.2731 26.8792 62.5693 26.8073 62.7979 26.7227V28.3604C62.5524 28.4704 62.2096 28.5635 61.7695 28.6396C61.3379 28.7158 60.9147 28.7539 60.5 28.7539C59.7637 28.7539 59.0951 28.627 58.4941 28.373C57.8932 28.1107 57.4108 27.6706 57.0469 27.0527C56.6914 26.4349 56.5137 25.5801 56.5137 24.4883V16.2363H54.5332V15.208L56.5264 14.3828L57.3643 11.3613H58.6338V14.5859H62.709V16.2363H58.6338V24.4248C58.6338 25.2965 58.8327 25.9482 59.2305 26.3799C59.6367 26.8115 60.1742 27.0273 60.8428 27.0273ZM63.4199 14.5859H65.6797L68.752 22.6602C68.9297 23.1341 69.0947 23.5911 69.2471 24.0312C69.3994 24.4629 69.5348 24.8776 69.6533 25.2754C69.7718 25.6732 69.8649 26.0583 69.9326 26.4307H70.0215C70.14 26.0075 70.3092 25.4531 70.5293 24.7676C70.7493 24.0736 70.9863 23.3669 71.2402 22.6475L74.1475 14.5859H76.4199L70.3643 30.5439C70.0426 31.3988 69.666 32.1436 69.2344 32.7783C68.8112 33.4131 68.2949 33.8997 67.6855 34.2383C67.0762 34.5853 66.3398 34.7588 65.4766 34.7588C65.0788 34.7588 64.7275 34.7334 64.4229 34.6826C64.1182 34.6403 63.8558 34.5895 63.6357 34.5303V32.8418C63.8219 32.8841 64.0462 32.9222 64.3086 32.9561C64.5794 32.9899 64.8587 33.0068 65.1465 33.0068C65.6712 33.0068 66.124 32.9053 66.5049 32.7021C66.8942 32.5075 67.2285 32.2197 67.5078 31.8389C67.7871 31.458 68.0283 31.0052 68.2314 30.4805L68.9932 28.5254L63.4199 14.5859ZM97.3545 28.5L95.0693 22.6094H87.6299L85.3574 28.5H83.1738L90.4355 9.86328H92.3779L99.5889 28.5H97.3545ZM94.4219 20.6924L92.251 14.8398C92.2002 14.6875 92.1156 14.4378 91.9971 14.0908C91.887 13.7438 91.7728 13.3841 91.6543 13.0117C91.5358 12.6393 91.4385 12.3389 91.3623 12.1104C91.2777 12.4574 91.1846 12.8044 91.083 13.1514C90.9899 13.4899 90.8968 13.8073 90.8037 14.1035C90.7106 14.3913 90.6302 14.6367 90.5625 14.8398L88.3535 20.6924H94.4219ZM102.166 28.5V9.93945H104.324V28.5H102.166Z" fill="black"/>
<defs>
<filter id="filter0_f_541_1986" x="-0.000976562" y="0.499908" width="113.62" height="34.6668" filterUnits="userSpaceOnUse" color-interpolation-filters="sRGB">
<feFlood flood-opacity="0" result="BackgroundImageFix"/>
<feBlend mode="normal" in="SourceGraphic" in2="BackgroundImageFix" result="shape"/>
<feGaussianBlur stdDeviation="1.5" result="effect1_foregroundBlur_541_1986"/>
</filter>
<filter id="filter1_f_541_1986" x="0.0683594" y="4.82617" width="113.552" height="26.6727" filterUnits="userSpaceOnUse" color-interpolation-filters="sRGB">
<feFlood flood-opacity="0" result="BackgroundImageFix"/>
<feBlend mode="normal" in="SourceGraphic" in2="BackgroundImageFix" result="shape"/>
<feGaussianBlur stdDeviation="1.5" result="effect1_foregroundBlur_541_1986"/>
</filter>
<filter id="filter2_f_541_1986" x="0.0322266" y="7.44177" width="113.587" height="22.0334" filterUnits="userSpaceOnUse" color-interpolation-filters="sRGB">
<feFlood flood-opacity="0" result="BackgroundImageFix"/>
<feBlend mode="normal" in="SourceGraphic" in2="BackgroundImageFix" result="shape"/>
<feGaussianBlur stdDeviation="1.5" result="effect1_foregroundBlur_541_1986"/>
</filter>
<linearGradient id="paint0_linear_541_1986" x1="3.99927" y1="17.5" x2="110.999" y2="17.5" gradientUnits="userSpaceOnUse">
<stop offset="0.401042" stop-color="#43F289"/>
<stop offset="1" stop-color="#5200FF"/>
</linearGradient>
<linearGradient id="paint1_linear_541_1986" x1="2.99951" y1="18.5" x2="111" y2="17" gradientUnits="userSpaceOnUse">
<stop stop-color="#74CDFF"/>
<stop offset="0.9999" stop-color="#FDA7FF"/>
<stop offset="1" stop-color="#EA00E0"/>
</linearGradient>
<linearGradient id="paint2_linear_541_1986" x1="2.99951" y1="18.5" x2="111" y2="18.5" gradientUnits="userSpaceOnUse">
<stop stop-color="#FD6464"/>
<stop offset="1" stop-color="#FAFF00"/>
</linearGradient>
</defs>
</svg>
