<svg width="114" height="35" viewBox="0 0 114 35" fill="none" xmlns="http://www.w3.org/2000/svg">
<g filter="url(#filter0_f_236_97)">
<path d="M3.15918 10.7435C16.5776 6.24342 31.6722 54.2434 55.8025 16.7441C78.6467 -18.7566 95.0273 28.7431 110.51 25.2442" stroke="url(#paint0_linear_236_97)"/>
</g>
<g filter="url(#filter1_f_236_97)">
<path d="M3.15869 10.7435C19.6746 7.7435 28.9641 45.2436 55.8022 16.7442C79.7611 -8.69774 95.0271 28.7433 110.51 25.2443" stroke="url(#paint1_linear_236_97)"/>
</g>
<g filter="url(#filter2_f_236_97)">
<path d="M3.15869 10.7436C16.5781 7.24344 27.9324 35.7434 55.8022 16.7444C79.2743 0.74341 97.0915 28.2434 110.51 25.2444" stroke="url(#paint2_linear_236_97)"/>
</g>
<path d="M12.998 15.171C12.9287 15.2663 12.8593 15.34 12.79 15.392C12.7207 15.444 12.6253 15.47 12.504 15.47C12.374 15.47 12.231 15.418 12.075 15.314C11.919 15.2013 11.724 15.08 11.49 14.95C11.2647 14.82 10.983 14.703 10.645 14.599C10.3157 14.4863 9.90833 14.43 9.423 14.43C8.773 14.43 8.201 14.547 7.707 14.781C7.213 15.0063 6.797 15.3357 6.459 15.769C6.12967 16.2023 5.87833 16.7267 5.705 17.342C5.54033 17.9573 5.458 18.6463 5.458 19.409C5.458 20.2063 5.549 20.917 5.731 21.541C5.913 22.1563 6.16867 22.6763 6.498 23.101C6.836 23.517 7.239 23.8377 7.707 24.063C8.18367 24.2797 8.71667 24.388 9.306 24.388C9.86933 24.388 10.333 24.323 10.697 24.193C11.061 24.0543 11.36 23.9027 11.594 23.738C11.8367 23.5733 12.036 23.426 12.192 23.296C12.3567 23.1573 12.517 23.088 12.673 23.088C12.8637 23.088 13.011 23.1617 13.115 23.309L13.765 24.154C13.479 24.5093 13.154 24.8127 12.79 25.064C12.426 25.3153 12.0317 25.5277 11.607 25.701C11.191 25.8657 10.7533 25.987 10.294 26.065C9.83467 26.143 9.36667 26.182 8.89 26.182C8.06667 26.182 7.29967 26.0303 6.589 25.727C5.887 25.4237 5.276 24.986 4.756 24.414C4.236 23.8333 3.82867 23.1227 3.534 22.282C3.23933 21.4413 3.092 20.4837 3.092 19.409C3.092 18.4297 3.22633 17.524 3.495 16.692C3.77233 15.86 4.171 15.145 4.691 14.547C5.21967 13.9403 5.86533 13.468 6.628 13.13C7.39933 12.792 8.28333 12.623 9.28 12.623C10.2073 12.623 11.022 12.7747 11.724 13.078C12.4347 13.3727 13.063 13.793 13.609 14.339L12.998 15.171ZM18.576 14.586C19.1393 13.988 19.7633 13.5113 20.448 13.156C21.1327 12.8007 21.9213 12.623 22.814 12.623C23.5333 12.623 24.166 12.7443 24.712 12.987C25.2667 13.221 25.726 13.559 26.09 14.001C26.4627 14.4343 26.7443 14.9587 26.935 15.574C27.1257 16.1893 27.221 16.8697 27.221 17.615V26H24.894V17.615C24.894 16.6183 24.6643 15.847 24.205 15.301C23.7543 14.7463 23.0653 14.469 22.138 14.469C21.4533 14.469 20.812 14.6337 20.214 14.963C19.6247 15.2923 19.0787 15.7387 18.576 16.302V26H16.249V6.851H18.576V14.586ZM37.8841 20.072C36.8181 20.1067 35.9081 20.1933 35.1541 20.332C34.4087 20.462 33.7977 20.6353 33.3211 20.852C32.8531 21.0687 32.5107 21.3243 32.2941 21.619C32.0861 21.9137 31.9821 22.243 31.9821 22.607C31.9821 22.9537 32.0384 23.2527 32.1511 23.504C32.2637 23.7553 32.4154 23.9633 32.6061 24.128C32.8054 24.284 33.0351 24.401 33.2951 24.479C33.5637 24.5483 33.8497 24.583 34.1531 24.583C34.5604 24.583 34.9331 24.544 35.2711 24.466C35.6091 24.3793 35.9254 24.258 36.2201 24.102C36.5234 23.946 36.8094 23.7597 37.0781 23.543C37.3554 23.3263 37.6241 23.0793 37.8841 22.802V20.072ZM30.4091 14.69C31.1371 13.988 31.9214 13.4637 32.7621 13.117C33.6027 12.7703 34.5344 12.597 35.5571 12.597C36.2937 12.597 36.9481 12.7183 37.5201 12.961C38.0921 13.2037 38.5731 13.5417 38.9631 13.975C39.3531 14.4083 39.6477 14.9327 39.8471 15.548C40.0464 16.1633 40.1461 16.8393 40.1461 17.576V26H39.1191C38.8937 26 38.7204 25.9653 38.5991 25.896C38.4777 25.818 38.3824 25.6707 38.3131 25.454L38.0531 24.206C37.7064 24.5267 37.3684 24.8127 37.0391 25.064C36.7097 25.3067 36.3631 25.5147 35.9991 25.688C35.6351 25.8527 35.2451 25.9783 34.8291 26.065C34.4217 26.1603 33.9667 26.208 33.4641 26.208C32.9527 26.208 32.4717 26.1387 32.0211 26C31.5704 25.8527 31.1761 25.636 30.8381 25.35C30.5087 25.064 30.2444 24.7043 30.0451 24.271C29.8544 23.829 29.7591 23.309 29.7591 22.711C29.7591 22.191 29.9021 21.6927 30.1881 21.216C30.4741 20.7307 30.9377 20.3017 31.5791 19.929C32.2204 19.5563 33.0567 19.253 34.0881 19.019C35.1194 18.7763 36.3847 18.6377 37.8841 18.603V17.576C37.8841 16.5533 37.6631 15.782 37.2211 15.262C36.7791 14.7333 36.1334 14.469 35.2841 14.469C34.7121 14.469 34.2311 14.5427 33.8411 14.69C33.4597 14.8287 33.1261 14.989 32.8401 15.171C32.5627 15.3443 32.3201 15.5047 32.1121 15.652C31.9127 15.7907 31.7134 15.86 31.5141 15.86C31.3581 15.86 31.2237 15.821 31.1111 15.743C30.9984 15.6563 30.9031 15.5523 30.8251 15.431L30.4091 14.69ZM47.5362 26.208C46.4962 26.208 45.6945 25.9177 45.1312 25.337C44.5765 24.7563 44.2992 23.92 44.2992 22.828V14.768H42.7132C42.5745 14.768 42.4575 14.729 42.3622 14.651C42.2668 14.5643 42.2192 14.4343 42.2192 14.261V13.338L44.3772 13.065L44.9102 8.996C44.9362 8.866 44.9925 8.762 45.0792 8.684C45.1745 8.59733 45.2958 8.554 45.4432 8.554H46.6132V13.091H52.8142L53.3472 8.996C53.3732 8.866 53.4295 8.762 53.5162 8.684C53.6115 8.59733 53.7328 8.554 53.8802 8.554H55.0502V13.091H58.8592V14.768H55.0502V22.672C55.0502 23.2267 55.1845 23.6383 55.4532 23.907C55.7305 24.1757 56.0772 24.31 56.4932 24.31C56.7358 24.31 56.9438 24.2797 57.1172 24.219C57.2992 24.1497 57.4552 24.076 57.5852 23.998C57.7152 23.92 57.8235 23.8507 57.9102 23.79C58.0055 23.7207 58.0878 23.686 58.1572 23.686C58.2872 23.686 58.3955 23.7597 58.4822 23.907L59.1712 25.012C58.7638 25.3847 58.2785 25.6793 57.7152 25.896C57.1518 26.104 56.5712 26.208 55.9732 26.208C54.9418 26.208 54.1445 25.9177 53.5812 25.337C53.0178 24.7563 52.7362 23.92 52.7362 22.828V14.768H46.6132V22.672C46.6132 23.2267 46.7475 23.6383 47.0162 23.907C47.2848 24.1757 47.6315 24.31 48.0562 24.31C48.2988 24.31 48.5068 24.2797 48.6802 24.219C48.8622 24.1497 49.0182 24.076 49.1482 23.998C49.2782 23.92 49.3865 23.8507 49.4732 23.79C49.5685 23.7207 49.6508 23.686 49.7202 23.686C49.8415 23.686 49.9498 23.7597 50.0452 23.907L50.7212 25.012C50.3225 25.3847 49.8415 25.6793 49.2782 25.896C48.7148 26.104 48.1342 26.208 47.5362 26.208ZM72.6032 12.831L65.2582 29.887C65.1802 30.0603 65.0805 30.199 64.9592 30.303C64.8465 30.407 64.6689 30.459 64.4262 30.459H62.7102L65.1152 25.233L59.6812 12.831H61.6832C61.8825 12.831 62.0385 12.883 62.1512 12.987C62.2725 13.0823 62.3549 13.1907 62.3982 13.312L65.9212 21.606C66.0599 21.97 66.1769 22.3513 66.2722 22.75C66.3935 22.3427 66.5235 21.957 66.6622 21.593L70.0812 13.312C70.1332 13.1733 70.2199 13.0607 70.3412 12.974C70.4712 12.8787 70.6142 12.831 70.7702 12.831H72.6032ZM90.2408 19.084L87.3158 11.505C87.2291 11.2797 87.1381 11.0197 87.0428 10.725C86.9474 10.4217 86.8564 10.101 86.7698 9.763C86.5878 10.465 86.4014 11.05 86.2108 11.518L83.2858 19.084H90.2408ZM95.4928 26H93.5428C93.3174 26 93.1354 25.9437 92.9968 25.831C92.8581 25.7183 92.7541 25.5753 92.6848 25.402L90.9428 20.904H82.5838L80.8418 25.402C80.7898 25.558 80.6901 25.6967 80.5428 25.818C80.3954 25.9393 80.2134 26 79.9968 26H78.0468L85.4958 7.371H88.0438L95.4928 26ZM100.465 26H97.9435V7.371H100.465V26Z" fill="black"/>
<defs>
<filter id="filter0_f_236_97" x="0" y="-0.00012207" width="113.621" height="34.6669" filterUnits="userSpaceOnUse" color-interpolation-filters="sRGB">
<feFlood flood-opacity="0" result="BackgroundImageFix"/>
<feBlend mode="normal" in="SourceGraphic" in2="BackgroundImageFix" result="shape"/>
<feGaussianBlur stdDeviation="1.5" result="effect1_foregroundBlur_236_97"/>
</filter>
<filter id="filter1_f_236_97" x="0.0693359" y="4.32617" width="113.551" height="26.6726" filterUnits="userSpaceOnUse" color-interpolation-filters="sRGB">
<feFlood flood-opacity="0" result="BackgroundImageFix"/>
<feBlend mode="normal" in="SourceGraphic" in2="BackgroundImageFix" result="shape"/>
<feGaussianBlur stdDeviation="1.5" result="effect1_foregroundBlur_236_97"/>
</filter>
<filter id="filter2_f_236_97" x="0.0327148" y="6.94177" width="113.586" height="22.0334" filterUnits="userSpaceOnUse" color-interpolation-filters="sRGB">
<feFlood flood-opacity="0" result="BackgroundImageFix"/>
<feBlend mode="normal" in="SourceGraphic" in2="BackgroundImageFix" result="shape"/>
<feGaussianBlur stdDeviation="1.5" result="effect1_foregroundBlur_236_97"/>
</filter>
<linearGradient id="paint0_linear_236_97" x1="4.00024" y1="17" x2="111" y2="17" gradientUnits="userSpaceOnUse">
<stop offset="0.401042" stop-color="#43F289"/>
<stop offset="1" stop-color="#5200FF"/>
</linearGradient>
<linearGradient id="paint1_linear_236_97" x1="3" y1="18" x2="111" y2="16.5" gradientUnits="userSpaceOnUse">
<stop stop-color="#74CDFF"/>
<stop offset="0.9999" stop-color="#FDA7FF"/>
<stop offset="1" stop-color="#EA00E0"/>
</linearGradient>
<linearGradient id="paint2_linear_236_97" x1="3" y1="18" x2="111" y2="18" gradientUnits="userSpaceOnUse">
<stop stop-color="#FD6464"/>
<stop offset="1" stop-color="#FAFF00"/>
</linearGradient>
</defs>
</svg>
