<svg width="16" height="16" viewBox="0 0 16 16" fill="none" xmlns="http://www.w3.org/2000/svg">
<path d="M12.0003 4L11.4664 12.0086C11.4197 12.71 11.3963 13.0607 11.2448 13.3267C11.1114 13.5608 10.9102 13.749 10.6677 13.8665C10.3923 14 10.0408 14 9.33781 14H6.66284C5.95984 14 5.60834 14 5.33292 13.8665C5.09044 13.749 4.88925 13.5608 4.75587 13.3267C4.60437 13.0607 4.58099 12.71 4.53423 12.0086L4.00033 4M2.66699 4H13.3337M10.667 4L10.4866 3.45871C10.3117 2.93417 10.2243 2.67189 10.0621 2.47799C9.91894 2.30676 9.73505 2.17421 9.52732 2.09252C9.29209 2 9.01563 2 8.46271 2H7.53795C6.98502 2 6.70856 2 6.47333 2.09252C6.2656 2.17421 6.08171 2.30676 5.93852 2.47799C5.77636 2.67189 5.68894 2.93417 5.51409 3.45871L5.33366 4" stroke="#B6B6B6" stroke-width="1.5" stroke-linecap="round" stroke-linejoin="round"/>
</svg>
