<svg width="14" height="14" viewBox="0 0 14 14" fill="none" xmlns="http://www.w3.org/2000/svg">
<path d="M10.9998 3L10.4659 11.0086C10.4192 11.71 10.3958 12.0607 10.2443 12.3267C10.1109 12.5608 9.90972 12.749 9.66724 12.8665C9.39182 13 9.04032 13 8.33732 13H5.66235C4.95935 13 4.60785 13 4.33243 12.8665C4.08995 12.749 3.88877 12.5608 3.75539 12.3267C3.60389 12.0607 3.5805 11.71 3.53374 11.0086L2.99984 3M1.6665 3H12.3332M9.6665 3L9.48607 2.45871C9.31123 1.93417 9.2238 1.67189 9.06165 1.47799C8.91845 1.30676 8.73456 1.17421 8.52683 1.09252C8.2916 1 8.01514 1 7.46222 1H6.53746C5.98454 1 5.70808 1 5.47284 1.09252C5.26511 1.17421 5.08122 1.30676 4.93803 1.47799C4.77587 1.67189 4.68845 1.93417 4.5136 2.45871L4.33317 3" stroke="#F10000" stroke-width="1.5" stroke-linecap="round" stroke-linejoin="round"/>
</svg>
