<svg width="16" height="16" viewBox="0 0 16 16" fill="none" xmlns="http://www.w3.org/2000/svg">
<path d="M7.66687 8.00017H3.61248M3.49756 8.53164L2.82772 10.5325C2.46085 11.6284 2.27742 12.1763 2.40906 12.5138C2.52338 12.8068 2.7689 13.029 3.07187 13.1135C3.42074 13.2109 3.94767 12.9738 5.00154 12.4995L11.7578 9.45921C12.7865 8.99632 13.3008 8.76487 13.4598 8.44335C13.5979 8.16401 13.5979 7.83626 13.4598 7.55693C13.3008 7.2354 12.7865 7.00396 11.7578 6.54106L4.98989 3.49552C3.9392 3.02271 3.41385 2.78631 3.06533 2.88328C2.76265 2.9675 2.51715 3.18907 2.40243 3.48156C2.27034 3.81835 2.45182 4.3651 2.81476 5.45861L3.49886 7.51969C3.5612 7.70751 3.59236 7.80141 3.60467 7.89746C3.61559 7.98268 3.61548 8.06896 3.60434 8.15415C3.59179 8.25016 3.56038 8.34399 3.49756 8.53164Z" stroke="#FBFBFB" stroke-opacity="0.984314" stroke-width="2" stroke-linecap="round" stroke-linejoin="round"/>
</svg>
